<?xml version="1.0" encoding="utf-8"?>
<!-- Generator: Adobe Illustrator 25.3.1, SVG Export Plug-In . SVG Version: 6.00 Build 0)  -->
<svg version="1.1" id="Layer_1" xmlns="http://www.w3.org/2000/svg" xmlns:xlink="http://www.w3.org/1999/xlink" x="0px" y="0px"
	 viewBox="0 0 159 155" style="enable-background:new 0 0 159 155;" xml:space="preserve">
<style type="text/css">
	.st0{fill-rule:evenodd;clip-rule:evenodd;fill:#91B820;}
	.st1{fill-rule:evenodd;clip-rule:evenodd;fill:#325009;}
	.st2{fill-rule:evenodd;clip-rule:evenodd;fill:#0D3A25;}
	.st3{fill-rule:evenodd;clip-rule:evenodd;fill:#2D7323;}
</style>
<path class="st0" d="M107.4,4.5c-12.8-4.3-24.9,0-34.6,12.4l-0.8,1l-1.2-2.3C65.7,5.1,53.4,3.4,44.7,11.9c-2.3,2.3-3.6,4.2-6.4,9.9
	c-2.9,5.8-4.1,7.7-7.5,11.5c-7.8,8.9-11.1,18.1-9.5,26.3c0.4,2.2,0.4,2.4-0.4,2.7c-2.3,0.8-8.3,6-11.3,9.6c-10.4,13-9.3,25,3.1,34.1
	c6.3,4.6,17.5,5.7,23,2.3c1.3-0.8,1.9-0.8,4,0.4c7.7,4.3,11.5,8.2,16.3,16.9c4.9,8.9,9.3,13.1,20.1,19.2c18.6,10.5,41.1,9.9,53-1.4
	c8.1-7.7,10.4-23.8,4.7-32.7c-0.6-1-1-1.8-0.9-1.9c0.1-0.1,0.9-0.8,1.8-1.6c2.1-1.8,2-1.7,4.4-4.1c2.5-2.4,3.3-3.3,5.1-5.6
	c0.8-1,2-2.4,2.7-3.2c4.3-4.5,7.5-11.8,7.3-16.6c-0.3-8-4.1-12.4-14.2-16.9l-4.4-1.9l0.5-0.6c1-1.2,3-6.3,3-7.7c0-3.1-1.9-7-5-10
	c-7.1-6.9-8.5-9.5-8.9-15.9C125.1,16.2,117.7,7.9,107.4,4.5z"/>
<path class="st1" d="M60.9,7.1c-4.6-1.3-10.3-0.2-13.6,2.7c-0.4,0.3-1.3,1.1-2.1,1.8c-2.6,2.2-3.5,3.5-6.4,9.3
	c-3.5,6.9-4.2,7.9-9.1,13.7c-3.3,3.9-7.6,11.8-8.5,15.8c-0.5,2-0.4,6.9,0.1,9.4c0.2,1,0.4,1.9,0.3,2c-0.2,0.3,1.1,2.4,4.2,6.8
	c6.7,9.7,11,19.6,11.4,26.2c0.2,3.1,0.1,6.6-0.2,9.2l-0.3,2.8l0.7-0.7c2.3-2,4.8-5.1,8.2-10l2-2.9l0.9-2.9
	c1.5-4.8,2.1-10.2,1.8-15.7c-0.5-8.4,1.4-19.5,4.3-25.9c4.6-9.9,10.3-16.6,16.2-18.9l2.7-1.1l0-0.8c0-0.4-0.1-1.1-0.2-1.5
	c-0.1-0.4-0.2-1.5-0.4-2.6c-0.3-2.5-1-6-1.3-6c-0.1,0-0.6-1-1.2-2.1C68.6,11.1,65.5,8.5,60.9,7.1z M133.7,58.2
	c-3.1-0.4-7.1-0.6-9.5-0.5l-2.3,0.1l0.9,2.6c6.6,19.1-6.5,36.1-30.6,39.7c-5.8,0.9-9.4,1.2-19.2,1.4c-8.5,0.2-9,0.3-14.6,1.8
	c-5.2,1.4-8,2.5-11.5,4.7c-4.4,2.7-4.2,2.3-1.6,4.4l2.2,1.8l1.3-0.4c4.4-1.4,9.4-1.1,16.5,1.1c4,1.2,5,1.5,5.9,2
	c10.7,5.3,13.5,6.4,19.8,7.6c10.9,2.2,19.1-0.2,33.1-9.9c1.8-1.3,3.8-2.6,4.4-2.9c0.6-0.3,1-0.7,1.1-0.7c0-0.1,0.6-0.5,1.3-0.9
	c0.7-0.4,1.3-0.9,1.3-0.9c0-0.1,0.5-0.5,1-0.9c2.2-1.7,8.1-7.6,9.6-9.5c0.8-1.1,2.4-2.9,3.5-4.1c9.5-10.4,10.2-22,1.7-28.9
	c-2.8-2.3-10.3-6.2-12.5-6.5c-0.3,0-0.3-0.1-0.1-0.3C135.9,58.5,135.8,58.5,133.7,58.2z"/>
<path class="st2" d="M89.4,38.1c-8.8-2.8-13-2.3-18.7,2.5c-8.7,7.2-10.9,19.7-5.1,29c1.2,1.9,1.2,1.9,2.3,0.5
	C72,64.8,79,58.9,81.1,58.9c2.4,0,3.9,0.8,8.1,4c10.2,7.8,10.3,19.8,0.2,23.9l-1.5,0.6l0.8,0.2c12.5,3.5,18.2,2.3,23.4-5
	c2.8-4,3.7-7.4,3.4-13.4c-0.3-5.2-5.6-15.9-9.9-19.8c-0.3-0.2-0.9-0.9-1.4-1.4c-1.8-1.8-2.5-2.5-4.4-4C96.5,41.5,92.1,39,89.4,38.1z
	"/>
<path class="st3" d="M107.2,4.5C94.6,0.4,83.1,4.4,73.4,16.2L72,17.9c0.2,0.3,0.9,3.6,1.2,6c0.1,1,0.3,2.2,0.4,2.6
	c0.1,0.4,0.1,1.1,0.2,1.5l0,0.8L71,29.9c-5.9,2.3-11.7,9-16.2,18.9c-3,6.4-4.8,17.5-4.3,25.9c0.3,5.4-0.3,10.9-1.8,15.7l-0.6,2
	c2.3-4.9,3-10,2.7-17.6C50.1,59.6,54,47.2,63,36.2c7.4-9.1,18-9.8,33.1-2.2c19.9,10,30.7,25.5,28.1,40.5c-0.8,4.8-3.4,9.8-6.8,13.7
	c6.8-7.4,9.1-17.2,5.5-27.7l-0.9-2.6l2.3-0.1c2.3-0.1,6.4,0.1,9.5,0.5c2.1,0.2,2.1,0.3,1.8,0.6c-0.2,0.2-0.2,0.3,0.1,0.3
	c0.1,0,0.3,0.1,0.5,0.1c-0.7-0.2-0.6-0.3-0.3-0.5c1-0.7,3.4-6.5,3.4-8.1c0-3.2-1.9-6.9-4.9-9.9c-6.8-6.6-8.3-9.1-8.8-14.4
	c-0.3-3.3-0.7-5.4-1.2-6.9C122.3,13.5,114.9,6.9,107.2,4.5z M71.2,16.5l0.4,0.9c-0.2-0.4-0.5-1-0.8-1.6c-2.2-4.7-5.2-7.3-9.9-8.7
	c-1.9-0.6-4-0.7-6.1-0.4C61.5,5.7,68.1,9.2,71.2,16.5z M45.1,11.6c0.7-0.7,1.4-1.2,2.2-1.8c-0.4,0.3-1.3,1.1-2,1.7
	c-0.4,0.3-0.8,0.7-1.1,1C44.4,12.3,44.7,11.9,45.1,11.6z M27.6,37.4c-2.2,3-3.8,6-4.9,9C23.9,43.5,25.7,40.1,27.6,37.4z M20.9,55.1
	c0,1,0.1,2.1,0.2,3.1C21,57.2,21,56.1,20.9,55.1z M21.7,61.8C21.7,61.7,21.7,61.7,21.7,61.8C21.7,61.8,21.7,61.8,21.7,61.8
	c-0.1,0.4,1.1,2.5,4.2,6.9c6.7,9.7,11,19.6,11.4,26.2c0.2,3.1,0.1,6.6-0.2,9.2l-0.3,2.8l0.7-0.7c2.3-2,4.8-5.1,8.2-10l1.4-2
	c-0.8,1.5-1.8,3-3,4.7c-6.7,9.1-9.7,11.2-16.5,11.4C12.8,110.7,0.6,98.2,2.9,85C4.1,77.9,13,66.5,20.1,62.8c0.1-0.1,0.3-0.1,0.4-0.2
	C21.2,62.2,21.6,62,21.7,61.8z M70.6,101.7c22.7-0.6,30.3-2.2,40.9-8.5c-5.1,3.4-11.6,5.9-19.2,7.1c-5.8,0.9-9.4,1.2-19.2,1.4
	c-8.5,0.2-9,0.3-14.6,1.8c-5.2,1.4-8,2.5-11.5,4.7c-0.4,0.2-0.7,0.5-1,0.6c-1.7,1-2.4,1.5-2.4,1.9c0,0.3,0.3,0.6,0.8,1l-0.2-0.1l0,0
	c-0.5-0.4-0.8-0.6-0.8-0.8c0-0.3,0.6-0.7,2-1.7l0.1,0c3.1-2,6-3.5,9.1-4.5C61.4,102.3,64,101.9,70.6,101.7z M56.5,126.3
	c-3.8-6.8-6-9.7-10-13l1.2,0.9l1.3-0.4c4.4-1.4,9.4-1.1,16.5,1.1c4,1.2,5,1.5,5.9,2c10.7,5.3,13.5,6.4,19.8,7.6
	c10.9,2.2,19.1-0.2,33.1-9.9c1.8-1.3,3.8-2.6,4.4-2.9c0.6-0.3,1-0.7,1.1-0.7c0-0.1,0.6-0.5,1.3-0.9c0.7-0.4,1.3-0.9,1.3-0.9
	c0-0.1,0.5-0.5,1-0.9c2.2-1.7,8.1-7.6,9.6-9.5c0.8-1.1,2.4-2.9,3.5-4.1c9.5-10.4,10.2-22,1.7-28.9c-2.4-2-8.3-5.1-11.4-6.2l0.1,0
	c3.9,1.2,9.8,4.6,12.8,7.4c7,6.5,5.7,18.4-2.9,27.6c-0.9,1-2.2,2.5-2.8,3.2c-1.8,2.3-5.8,6.5-9.9,10.1c-0.1,0.1-0.1,0.1-0.2,0.2
	c-0.6,0.5-0.9,0.8-0.9,1.1c0,0.3,0.2,0.6,0.6,1.2c0,0.1,0.1,0.1,0.1,0.2c6.4,10.3,3.4,26.8-6.1,34.2c-12.2,9.5-31,10.1-48.4,1.4
	C67.4,140.4,61.7,135.4,56.5,126.3z M81,58.8c2.4,0,3.9,0.8,8.2,4c10.3,7.9,10.3,19.9,0.2,24.1l-1.2,0.5c-8.6-3.2-17.2-9.5-22-16.8
	c0.5,0.6,0.8,0.3,1.6-0.7C71.9,64.6,78.9,58.7,81,58.8z"/>
</svg>
