<?xml version="1.0" encoding="utf-8"?>
<!-- Generator: Adobe Illustrator 25.3.1, SVG Export Plug-In . SVG Version: 6.00 Build 0)  -->
<svg version="1.1" id="Layer_1" xmlns="http://www.w3.org/2000/svg" xmlns:xlink="http://www.w3.org/1999/xlink" x="0px" y="0px"
	 viewBox="0 0 74 171" style="enable-background:new 0 0 74 171;" xml:space="preserve">
<style type="text/css">
	.st0{fill-rule:evenodd;clip-rule:evenodd;fill:#325009;}
	.st1{fill:#91B820;}
</style>
<path class="st0" d="M37.3,57.5c-4.9,2.6-9.6,5-9.3,8.4l-6.2-0.1c-0.3-3.4-3.2-6.6-10.9-12C3.2,48.4,0.8,42.6,4.9,38.2
	c4-4.4,8.2-1.3,13.1,3.9c0,0-7.3-14.1-9.4-17.8c-4.1-7.2,8.6-15.4,13.1-7.8c0.2-6.6,2.8-12.9,10-12c7.8,1,5,13.8,5,13.8
	c6.4-4.3,9.9-1.8,11.5,2.5c1.8,5-0.8,8-9.7,17.9c-1.8,2-3.7,4.2-6,6.8c6.1-4.4,13-6.5,15.2,0.5C49.3,51.3,43.2,54.5,37.3,57.5z
	 M9.6,163.9c0,0,5.3-9.7,0.4-19.2l0,0l5.3-3.1c4.5,7.5,15.6,8.9,15.6,8.9l-3.5,8.6c0,0-5.6-1.8-8.6-5.1c1.3,4.7-0.7,10.8-0.7,10.8
	L9.6,163.9z"/>
<path class="st1" d="M25.4,27.3c-3.1,12.7-6.3,25.8-2.3,46.7c2.1,11.1,6.1,23.4,12.2,37.6c0,0.1,0.1,0.1,0.1,0.2
	c-0.7-0.3-1.5-0.6-2.2-0.8c-5.6-1.8-11.7-1.1-17.1,2c-11.3,6.5-13.7,18.7-6.1,31.7l5.3-3.1c-2.9-5.1-4.1-9.9-3.3-13.9
	c0.7-3.9,3.1-7.1,7.2-9.4c3.9-2.2,8.2-2.8,12.1-1.5c4.4,1.4,8.3,5,10.9,10.1c5.7,11.9,12.6,24.8,21,39.2l5.3-3.1
	c-22.2-38.4-35-67.9-39.4-90.3c-3.8-19.6-0.9-31.4,2.2-44L25.4,27.3L25.4,27.3z"/>
</svg>
