<svg width="64" height="81" viewBox="0 0 64 81" fill="none" xmlns="http://www.w3.org/2000/svg">
<path d="M50.899 37.8297C39.7856 32.0306 26.0869 36.3448 20.2962 47.4638C17.7225 52.4094 17.1493 57.8578 18.2724 62.897C18.4478 61.4121 18.8807 59.939 19.606 58.5243C22.8113 52.3743 30.3918 49.9892 36.5452 53.1928C42.6985 56.3963 45.085 63.9843 41.8796 70.1342C39.0486 75.5593 33.4802 78.5874 26.0284 77.4183C39.0486 83.5331 54.7361 79.5579 60.5268 68.4389C66.3174 57.32 62.0124 43.6172 50.899 37.818V37.8297Z" fill="#ffffff"/>
<path d="M35.7266 31.7271C45.3543 29.0496 48.3374 23.192 48.8521 17.3695C49.7178 7.58344 41.6927 1.09447 34.662 0.381268C12.6808 -1.86356 -0.280927 18.831 0.362481 36.8481C0.760225 48.1307 4.24633 59.1795 15.1726 70.2868C12.6925 65.4814 8.28226 36.7779 35.7383 31.7154L35.7266 31.7271Z" fill="#ffffff"/>
</svg>
