<?xml version="1.0" encoding="utf-8"?>
<!-- Generator: Adobe Illustrator 25.2.0, SVG Export Plug-In . SVG Version: 6.00 Build 0)  -->
<svg version="1.1" id="Layer_1" xmlns="http://www.w3.org/2000/svg" xmlns:xlink="http://www.w3.org/1999/xlink" x="0px" y="0px"
	 viewBox="0 0 91 102.6" style="enable-background:new 0 0 91 102.6;" xml:space="preserve">
<style type="text/css">
	.st0{fill:#91B820;}
	.st1{fill:#2D7323;}
</style>
<g>
	<path class="st0" d="M83.4,51c1.3-0.9,2.6-2.2,2.5-3.7c0-0.5-0.2-1-0.4-1.5c-1.1-3-2.2-5.9-3.4-8.9c0.1,0.1,0.1,0.1,0.1,0
		c0-0.1,0-0.1,0.1-0.2c0.9-0.8,1.8-1.5,2.6-2.4c0.8-0.9,1.4-1.9,1.4-3.1c0-0.9-0.3-1.7-0.6-2.6c-1.2-3.3-2.6-6.5-4.3-9.6
		c-0.4-0.8-0.9-1.6-1.8-1.8c-0.5-0.1-1.1,0.1-1.6,0.3c-1.1,0.4-2.1,1-3.1,1.8c-0.5,0.4-1.1,0.9-1.7,1c-0.8,0.1-1.6-0.4-2.3-1
		c-1-1-1.7-2.1-2.6-3.1c-0.9-1-2.2-1.8-3.6-1.7c-1.7,0.1-2.9,1.5-3.9,2.8c-1.2,1.6-2.2,3.3-3.1,5.1c0.3-3.7-0.1-7.4-0.8-11.1
		c-0.2-0.9-0.4-1.9-0.9-2.7c-0.5-0.8-1.2-1.6-2.1-1.9c-1.3-0.5-2.8,0-4.2,0c-0.3,0-0.7,0-0.9-0.2c-0.4-0.3-0.6-0.8-0.8-1.3
		c-0.3-0.9-0.5-1.8-0.8-2.7c-0.2-0.8-0.4-1.5-1-2c-0.9-0.8-2.3-0.5-3.4-0.3c-5.4,1.3-10.8,2.9-15.8,5.3c-1.2,0.6-2.5,1.3-2.9,2.6
		c-0.2,0.6-0.1,1.3,0.1,1.9c0.4,1.6,1.3,3,2.2,4.4c-1.9,1.9-3.7,3.8-5.6,5.7c-0.6,0.6-1.2,1.2-1.6,1.9s-0.7,1.6-0.5,2.4
		c0.1,0.6,0.5,1.1,0.9,1.6c1.4,1.9,3,3.7,4.8,5.4c-1.2-0.6-2.4-0.7-3.7-1c-1.3-0.2-2.7-0.1-3.9,0.6c-2,1.3-2.5,4-3.9,5.9
		c-0.4,0.6-1,1.2-1.7,1.3c-1.1,0.3-2.3-0.4-3.3-0.1c-0.6,0.2-1.1,0.7-1.5,1.2c-1,1.2-1.8,2.6-2.5,4C2.5,46.7,1.1,50.1,0,53.6
		c0,0,5.7,2.4,7.1,2.9c1.4,0.6,2.1,2.8,0.7,5.9C6.4,65.6,8,73.1,21.3,70.4l13,6.7l17.5,0.3l6.6,7.1l0.2-12.3l20.1-15L83.4,51
		L83.4,51z"/>
	<path class="st1" d="M79.5,27.9L78,26.7C68.1,38.6,61.4,47,57.2,53.1c3.8-11.1,9-26.8,10.1-30.9l-1.9-0.5
		c-1.3,5.1-9.6,29.5-12.7,38.8l-1.3-4.2c-4.2-14.5-4.1-21.3-2.7-32l1.1-9.1L47.9,15l-2.8,20.6L37.1,9l-3.7,1.1L41.4,37L27.7,20.7
		L26.2,22l6.3,7.5c6.8,8,11.9,17.4,14.9,27.5l1.5,4.9C48.8,61.7,26,42,21.5,36.7L20,37.9c3.3,3.8,12.2,11.9,19.4,18.2
		c-6.7-3.2-16-6.7-28.5-10.8l-0.6,1.9c13.4,4.4,23,8.1,29.6,11.4c-1.6-0.3-3.3-0.4-5-0.5c-7.5-0.3-16,1.3-21.4,2.9l0.5,1.9
		c5.3-1.5,13.5-3.1,20.8-2.8c0.7,0,1.5,0.1,2.3,0.3c7.5,1.5,13.5,7.1,15.8,14.4l8.1,26.8l3.7-1.1l-8-26.4c-2-6.6,0.1-13.7,5.3-18.1
		c4.9-4.2,11.4-8.3,17.7-10.6L79,43.4C67.2,47.7,60.6,53.2,57.2,57L79.5,27.9L79.5,27.9z"/>
	<path class="st1" d="M67,99.9c-9.8-24.1-6.2-27.3-3.7-28.2c6.6-2.4,6.6,3.7,10.8,2.1l8.3-3c0,0-0.4-0.7-1.5-4.1
		c-1.1-3.4,0.8-3.6,4.2-4.2c10.5-1.9,4.8-15.9-1.9-13.2c-25.4,8-27.9,24.6-27.1,30.5c-5.6-15.3-26.4-16.6-37.4-10.7
		s-2.2,19.3-2.2,19.3l7.7-2.8c0,0-0.5-3.1,2.2-4.1c2.7-1,4.9,7.9,4.9,7.9l10.4-3.8c0,0-3.6-5.7,1.3-7.5c8.8-3.2,12.6,11.4,16.6,24.4
		L67,99.9L67,99.9z"/>
</g>
</svg>
