<?xml version="1.0" encoding="utf-8"?>
<!-- Generator: Adobe Illustrator 25.2.0, SVG Export Plug-In . SVG Version: 6.00 Build 0)  -->
<svg version="1.1" id="Layer_1" xmlns="http://www.w3.org/2000/svg" xmlns:xlink="http://www.w3.org/1999/xlink" x="0px" y="0px"
	 viewBox="0 0 73.1 110.9" style="enable-background:new 0 0 73.1 110.9;" xml:space="preserve">
<style type="text/css">
	.st0{fill:#FE6A01;}
	.st1{fill-rule:evenodd;clip-rule:evenodd;fill:#325009;}
	.st2{fill-rule:evenodd;clip-rule:evenodd;fill:#2D7323;}
</style>
<g>
	<path class="st0" d="M64.2,63.9c0.1-13.5-6.1-16-2.4-36.9c9.5,0.1,12.3-12.6,2.4-16.7C62.7,9.8,60,9,56.9,8.3l0-0.1
		c0.2-1.4,1-2.7,2.1-3.6c1.2-1,0.9-3.6-3.5-4.4c-4.4-0.8-5.6,1.7-5,3c0.5,1.1,0.7,2.3,0.5,3.6L51,7.2c-3.3-0.4-6.6-0.6-9.1-0.1
		c-7.3,1.4-11.2,13.1-2,16c-4.4,18.4-17.1,25.1-20.7,39.7c-2.5,10.2-5.1,24.8-5.6,37.7l41.7,7.3C61.1,92.3,64.1,73.9,64.2,63.9
		L64.2,63.9z"/>
	<path class="st1" d="M28.1,84.4c0,0-1-2-0.7-2.6c15.6-3.4,13.3-14.5,12.7-17.3c0-0.1-0.1-0.3-0.1-0.4c-1.2-6.3,5.2-7.3,7.4-1.2
		c-0.2-3.3,0.4-8.1,1-9.9c2-6.1,10.1-4.8,9.4,1C55.1,75.3,28.1,84.4,28.1,84.4z M51.5,82.4c0,0.3-0.1,0.5-0.1,0.8
		c-0.6,3-2.5,2.7-4.9,2.2c-1.5-0.3-3.1-0.6-4.8-0.2c-2.8,0.5-4.3,1.5-5.5,3.5c6-11.9,16.1-17.1,20.5-17.2c4.8-0.1,4.2,7.1,0.8,7.9
		c-0.8,0.2-1.6,0.1-2.4,0c-0.9-0.1-1.7-0.2-2.3,0.1C51.9,80,51.7,81.1,51.5,82.4z"/>
	<path class="st2" d="M40.1,64.5c0.5,2.4,2.3,10.7-6.7,15.3h0c0-0.1-2-7.2-2.7-9.7c-0.6-2.5-0.2-5,2.1-5.8c2.3-0.9,4.1,0.7,4.1,0.7
		s-1.8-8.4-2.2-11.3c-0.4-2.9-0.3-7.6,7.2-7c0,0-0.6-4.1-0.5-6.8c0.1-2.7,1.1-8.3,7.2-8.2c6.4,0.1,8.5,8.8,5.1,17.4l0,0
		c-2.1-0.1-4.3,1.2-5.2,4c-0.6,1.8-1.2,6.6-1,9.9c-2.2-6.1-8.6-5.1-7.4,1.2C40,64.3,40.1,64.4,40.1,64.5z M30.1,96.5l0.8-2.6
		c-3.2-1.8-7.1-7.1-6.6-11.2c0.2-1.6,1.3-2.3,2.4-3.1c1.3-1,2.7-1.9,2.6-4.3c0-1.2-0.8-1.9-1.5-2.6c-0.6-0.5-1.1-1-1.1-1.7
		c0-0.6,0.4-1.3,0.9-2.1c0.7-1.1,1.5-2.5,1.3-4.2c-0.3-2.5-4.6-3.6-6-0.3C21.3,68.2,17.5,87.8,30.1,96.5L30.1,96.5z M35.4,90.4
		c0.3-0.6,0.5-1.2,0.8-1.7c1.2-2,2.7-2.9,5.5-3.5c-4.5,1-6.6,14.2-6.6,14.2L32.7,99c0.6-3.1,1.6-5.9,2.7-8.5
		C35.4,90.5,35.4,90.4,35.4,90.4z M63.6,104.6c-0.9-1.1-3.4,0.2-2.4,1.8C62.3,107.9,64.9,106.1,63.6,104.6z M64.7,106.8
		c-1.4,0.4-1.1,3.2,0.7,2.9C67.3,109.3,66.6,106.2,64.7,106.8z M60.4,108.9l2.7,0.5C63.4,107.6,60.7,106.9,60.4,108.9z M70,109.5
		c0.3-1.8,3.1-1.2,3.1,0.3h0c0,0.8-0.7,1.3-1.8,1.1C70.3,110.6,69.9,110.2,70,109.5z M7.5,98.2c0-1.4-2.7-2.1-3.1-0.3
		c-0.1,0.7,0.3,1.2,1.3,1.4C6.8,99.4,7.5,99,7.5,98.2L7.5,98.2z M0,97.1c0.3-1.8,3.1-1.2,3.1,0.3h0c0,0.8-0.7,1.3-1.8,1.1
		C0.3,98.3-0.1,97.9,0,97.1z M2.7,94.6C2,95.8,4,97.7,5.2,96.3c0.5-0.6,0.3-1.2-0.5-1.8C3.9,93.8,3.1,93.8,2.7,94.6L2.7,94.6z"/>
</g>
</svg>
