<?xml version="1.0" encoding="utf-8"?>
<!-- Generator: Adobe Illustrator 25.2.0, SVG Export Plug-In . SVG Version: 6.00 Build 0)  -->
<svg version="1.1" id="Layer_1" xmlns="http://www.w3.org/2000/svg" xmlns:xlink="http://www.w3.org/1999/xlink" x="0px" y="0px"
	 viewBox="0 0 67.9 99.1" style="enable-background:new 0 0 67.9 99.1;" xml:space="preserve">
<style type="text/css">
	.st0{fill:#2D7323;}
	.st1{fill:#325009;}
	.st2{fill:#91B820;}
</style>
<g>
	<path class="st0" d="M12.4,96.7L15.6,85c0,0-16.5-13.1-15.5-41.4C1,15.2,1.1,10.7,19.4,4.5c18.2-6.2,36.1-7.2,43.9,5
		c7.8,12.2,4,20.5-0.2,26.3c-4.2,5.8-6.5,8.9-6.7,11.8c-0.2,2.9,1.4,13.3-8.6,20.3c-17.6,12.4-20.6,9-26.6,31.2L12.4,96.7z"/>
	<path class="st1" d="M17.9,86.3c-0.1-18.9,3.6-36.1,11.1-51c6.1-12.2,13.2-19.8,17-23.9c0.4-0.4,0.7-0.7,1-1.1l3.4,3.1
		c-0.3,0.3-0.6,0.7-1,1.1C45.7,18.5,39,25.8,33.1,37.4C26,51.6,22.4,68.1,22.5,86.3L17.9,86.3L17.9,86.3z"/>
	<path class="st2" d="M21.7,83.2C8.4,76.4,0.3,52.3,0,43.5C-0.9,71.9,15.6,85,15.6,85l-3.1,11.7l8.8,2.4c6-22.2,8.9-18.8,26.6-31.2
		c2.3-1.6,4-3.4,5.2-5.2C39.7,70.1,27.9,60,21.7,83.2L21.7,83.2z"/>
</g>
</svg>
