<?xml version="1.0" encoding="utf-8"?>
<!-- Generator: Adobe Illustrator 25.2.0, SVG Export Plug-In . SVG Version: 6.00 Build 0)  -->
<svg version="1.1" id="Layer_1" xmlns="http://www.w3.org/2000/svg" xmlns:xlink="http://www.w3.org/1999/xlink" x="0px" y="0px"
	 viewBox="0 0 74.7 80.3" style="enable-background:new 0 0 74.7 80.3;" xml:space="preserve">
<style type="text/css">
	.st0{fill:#FF0D90;}
	.st1{fill:#325009;}
	.st2{fill-rule:evenodd;clip-rule:evenodd;fill:#FBFAF9;}
</style>
<g>
	<path class="st0" d="M65.4,24.9c-2.3-6.4-2.7-19.2-12-23.3C44.1-2.4,27,1,19,12.2c-8.1,11.1-16.9,37-18.8,52
		c-0.7,3.2,0.8,6.9,1.9,10c1.3,3.6,4.5,7.4,11.1,5.6L57,68.1c3.2-0.9,15.6-5.9,16.9-19.6C75.2,34.1,66.7,30.7,65.4,24.9L65.4,24.9z"
		/>
	<path class="st1" d="M73.6,10.5l-4.8,1.3c0.7,2.8,1.1,6.6-0.7,8.4c-1.1,1-3.6,1.6-4.1-0.2c-1.5-6.6-3.4-15.1-10.6-18.3
		c-2,3-3.3,7.2-3.3,7.2s1.6,6.1,7.6,11.2c-4.3,5.1-4.7,6.5-4.7,6.5l0.8,3c0,0,3.4,1.2,8.1,0.6c-0.4,3.5-0.4,7.1-0.4,7.1
		s6.3,5.7,12.2,5c-1-7.6-5.3-11.1-7.4-14.8C76.2,26.7,75.5,15.4,73.6,10.5L73.6,10.5z"/>
	<path class="st2" d="M37.7,8.7c0,0.4,0.1,0.9,0.4,1.2c0.2,0.2,0.4,0.3,0.6,0.4c0.3,0.1,0.5,0.3,0.8,0.3c0.8,0,1.4-0.6,1.9-1.2
		c1-1.2,2-2.6,2.2-4.2c0-0.3,0-0.5,0-0.8c-0.2-1-1.3-1.6-2.3-1.4c-1,0.1-1.8,0.8-2.3,1.6c-0.4,0.6-0.7,1.3-0.9,2
		c0,0.1-0.1,0.2-0.1,0.3C37.9,7.5,37.7,8.1,37.7,8.7z M27.7,12c0.5-0.2,1.2-0.2,1.6,0.2l0,0c0.5,0.5,0.9,1.2,0.8,1.9
		c-0.1,0.7-0.4,1.3-0.7,1.8c-0.8,1.4-2,2.6-3.4,3.4c-0.2-0.1-0.5-0.2-0.7-0.3c-0.2-0.1-0.5-0.2-0.7-0.3c-0.2-0.4-0.5-0.8-0.4-1.2
		c0.2-1.1,0.5-2.2,1-3.2C25.7,13.2,26.6,12.3,27.7,12z M37.8,25.6c0.2-1.2,0.5-2.5,1.3-3.5l0,0c1.1-1.4,4-2.3,4.5,0.1
		c0.1,0.6,0,1.3-0.3,1.9c-0.3,0.6-0.7,1.1-1.1,1.6c-0.4,0.4-0.8,0.8-1.2,1.2c-0.4,0.3-0.8,0.7-1.2,0.8c-0.5,0.2-1,0.2-1.4-0.1
		c-0.3-0.2-0.5-0.6-0.6-1C37.7,26.4,37.8,26,37.8,25.6z M30,33.7c0.6-0.2,1.4-0.3,1.9,0.2l0,0c0.6,0.6,0.7,1.7,0.5,2.6
		c-0.1,0.4-0.3,0.8-0.5,1.1c-0.8,1.4-2.1,2.5-3.6,3.2c-0.3-0.1-0.5-0.3-0.8-0.4l0,0c-0.3-0.2-0.6-0.3-1-0.5c0.2-1.2,0.4-2.5,0.9-3.6
		C27.9,35.1,28.8,34.1,30,33.7z M50.2,39.8c-0.7-0.8-2-1-3-0.6c-1,0.4-1.8,1.1-2.6,1.9c-0.5,0.5-1,1.1-1.2,1.8
		c-0.2,0.7,0,1.6,0.7,1.9c0.5,0.3,1.1,0.2,1.7,0.1c1-0.2,1.9-0.6,2.8-1c0,0,0.1,0,0.1,0l0,0c0,0,0,0,0,0c0.6-0.6,1.2-1.3,1.7-1.9
		C50.6,41.2,50.7,40.4,50.2,39.8z M31.9,51.3c0.5,0,1.1,0.3,1.4,0.7l0,0c0.3,0.4,0.3,1,0.2,1.5c-0.1,0.5-0.3,0.9-0.6,1.3
		c-1.1,1.5-2.9,2.5-4.8,2.7c-0.3-0.3-0.5-0.6-0.8-1c-0.2-0.2-0.3-0.4-0.5-0.6c0.4-0.9,0.8-1.7,1.4-2.5c0.6-0.8,1.3-1.4,2.2-1.8
		C30.8,51.4,31.3,51.3,31.9,51.3z M60.1,53.4c0,0.2,0.1,0.4,0.2,0.6c0.1,0.1,0.2,0.2,0.4,0.3c1,0.4,2,0.1,3-0.2
		c0.9-0.3,1.8-0.6,2.4-1.2c0.7-0.6,1.1-1.6,0.8-2.5c-0.3-0.7-1-1.2-1.7-1.3c-0.8-0.1-1.5,0.1-2.2,0.4C61.5,50.1,59.9,51.6,60.1,53.4
		L60.1,53.4z M44.5,64c-0.4,0-0.8-0.1-1.2-0.3l0,0c-1.3-0.6-0.7-2.1,0.2-2.9c0.9-0.8,2-1.5,3.1-1.9c0.5-0.2,1.1-0.3,1.6-0.2
		c0.5,0.1,1.1,0.3,1.4,0.8c0.4,0.6,0.4,1.3,0.1,1.9c-0.3,0.6-0.8,1.1-1.4,1.5C47.2,63.7,45.8,64,44.5,64z M31.6,68.1
		c-0.3-0.7-0.7-1.3-1.2-1.9c-2.3-0.2-4.7,0.8-6,2.8c-0.4,0.6-0.6,1.3-0.4,1.9c0.2,0.4,0.6,0.7,1.1,0.8c0.5,0.1,0.9,0.1,1.4,0
		c1.3-0.2,2.5-0.8,3.6-1.6C30.7,69.6,31.4,68.8,31.6,68.1L31.6,68.1z M9.3,68.5c0.9-1.3,2.2-2.4,3.8-2.6l0,0c0.6-0.1,1.6,0,2,0.6
		s0.6,1.5,0.3,2.2c-0.2,0.7-0.8,1.2-1.4,1.6c-0.6,0.4-1.3,0.8-2,1.1c-0.8,0.4-1.7,0.7-2.6,0.4c-0.2,0-0.3-0.1-0.5-0.2
		c-0.1-0.1-0.2-0.3-0.3-0.5C8.4,70.1,8.8,69.2,9.3,68.5z M16.9,49.7c-0.3-0.4-0.9-0.4-1.3-0.4c-1.2,0.2-2.3,1.1-2.9,2.1
		s-0.9,2.3-1.1,3.5c0.6,0.5,1.3,1.1,2,1.4c1.1-0.7,2.2-1.6,3.1-2.5c0.6-0.6,0.9-1.5,0.9-2.4C17.7,50.9,17.3,50.2,16.9,49.7
		L16.9,49.7z M15.4,31.8c0.4-0.7,0.8-1.3,1.5-1.7l0,0c0.6-0.4,1.6-0.6,2.2-0.2c0.7,0.5,1.2,1.1,1.2,2c0,0.7-0.3,1.4-0.7,2
		c-0.5,0.7-1,1.4-1.5,2.1c-0.5,0.6-1.2,1.1-1.9,1.1c-0.5-0.1-1-0.4-1.2-0.9c-0.2-0.5-0.3-1-0.3-1.6C14.7,33.6,15,32.7,15.4,31.8z"/>
</g>
</svg>
