<?xml version="1.0" encoding="utf-8"?>
<!-- Generator: Adobe Illustrator 25.2.0, SVG Export Plug-In . SVG Version: 6.00 Build 0)  -->
<svg version="1.1" id="Layer_1" xmlns="http://www.w3.org/2000/svg" xmlns:xlink="http://www.w3.org/1999/xlink" x="0px" y="0px"
	 viewBox="0 0 70 105" style="enable-background:new 0 0 70 105;" xml:space="preserve">
<style type="text/css">
	.st0{fill-rule:evenodd;clip-rule:evenodd;fill:#91B820;}
	.st1{fill:#325009;}
</style>
<g>
	<path class="st0" d="M18.6,33.7c3.7-0.2,7.2-0.3,8.2,1.8l3.5-2.1c-0.9-2.1-0.4-4.8,2.3-10.6c2.6-5.7,2.1-9.9-1.7-11.1
		c-3.8-1.2-5.2,2-6.3,6.6c0,0-0.5-10.5-0.5-13.4c0-5.5-10.1-6-10.1-0.1C11.6,1,8.1-1.7,4.2,1.2C0,4.4,5.9,10.9,5.9,10.9
		c-5.1-0.4-6.3,2.2-5.8,5.3c0.6,3.5,3.1,4.3,11.5,7.1c1.7,0.6,3.6,1.2,5.7,1.9c-5-0.5-9.6,0.6-8.6,5.4C9.6,34.1,14.2,33.9,18.6,33.7
		z M70,85.9c0,0-6.3-3.8-6.6-11h0h-4.1c-0.1,5.8-6.1,10.3-6.1,10.3l4.9,3.8c0,0,2.6-2.9,3.3-5.8c0.8,3.1,4,6,4,6L70,85.9z"/>
	<path class="st1" d="M15.4,12.3c6,6.3,12.3,12.8,16.9,26.2c2.5,7.1,4.3,15.6,5.5,25.8c0,0,0,0.1,0,0.1c0.3-0.4,0.6-0.8,1-1.2
		c2.7-2.9,6.4-4.5,10.5-4.5c8.7,0,14.1,6.2,14.1,16.3h-4.1c0-3.9-0.9-7.1-2.7-9.2c-1.7-2-4.2-3-7.3-3c-3,0-5.6,1.1-7.5,3.2
		c-2.1,2.3-3.1,5.6-2.9,9.5c0.7,8.8,1,18.6,1,29.6h-4.1c0-29.6-2.4-50.9-7.4-65.2c-4.3-12.5-10-18.4-16-24.7L15.4,12.3L15.4,12.3z"
		/>
</g>
</svg>
