<?xml version="1.0" encoding="utf-8"?>
<!-- Generator: Adobe Illustrator 25.2.0, SVG Export Plug-In . SVG Version: 6.00 Build 0)  -->
<svg version="1.1" id="Layer_1" xmlns="http://www.w3.org/2000/svg" xmlns:xlink="http://www.w3.org/1999/xlink" x="0px" y="0px"
	 viewBox="0 0 103.8 102.5" style="enable-background:new 0 0 103.8 102.5;" xml:space="preserve">
<style type="text/css">
	.st0{fill:#91B820;}
	.st1{fill:#2D7323;}
</style>
<g>
	<path class="st0" d="M55.2,66.7c0.4-9.6,0.8-15.3,7.3-20.4c11.8-9.3,5.1-14.5,8.6-19c2.4-3.1,11.2-6.9,13.3-13.6
		C88.2,1.5,70.8-5.6,63.4,5.6c-3.4,5.1-2.3,10.7-4.2,14.1c-2,3.3-3.9,4.3-4.7,7.1c-0.9,3.2,0.6,10.6,0,13.4c-0.7,3.4-3.5,5.5-4,10.7
		c-1.5-7.8-6.3-30.2-19.6-33.9c-5.7-1.6-10.5-1-12.8,0.4c-2.6,1.6-3,4.5-5.8,5.1C8.8,23,2.7,23,3.9,30.3c1.3,7.3,8.8,5.8,8.8,5.8
		c3.1-0.6,4.1-1.1,5.7-1c1.7,0.1,3.1,1.9,6.3,1.7c3.1-0.2,5.6-4.6,11.9-0.4c6.4,4.2,9,13.7,9,30.8l4.4,10.3L55.2,66.7L55.2,66.7z"/>
	<path class="st1" d="M3.9,79.6c6.8-4.5,13.7,0.8,19.4,0.4c4.8-0.3,17.7-3,23.2,6.8c0,0,0.8-26.7-13.5-26.7c-6.2,0-9.1,3.9-9.1,7.9
		c0,4.1-1.8,6.4-9,6.4C4,74.4,4.5,66.5,5.2,63c0.3-1.2,0.2-2.4,0.1-3.6c-1-6.6,1-10.1,6-10.1c11.9,0,8.6-3,17-3
		c7.9,0,19.2,6.8,22,25.2c0,0,2.9-24.8,29.8-26.5c13-0.8,23.7,8.8,23.7,20c0,6.9-3,8.9-5.7,8.7c-6-0.4-4.2-6-7.2-6.7
		c-1.8-0.4-3.4,1.9-6.6,1c-4.4-1.2-4.3-6.3-9-6.1c-5.4,0.2-2.1,5.3-7.2,7.6c-4.1,1.8-7.2-0.9-10.3,0.4c-2.9,1.2-4.5,5.6-4.2,12.4
		c5.9-5.5,17.8-8.4,31.7-6.9c13.9,1.6,12.9,12.5,11,27h-11c0-17.2-5.6-21.1-11.4-21.5c-6.5-0.4-6,4.7-10.3,6
		c-4.4,1.2-4.7-1.5-7.5-0.8c-1.9,0.5-2.4,2.1-2.4,3.8l0,12.5h-6.4c0,0,2.2-14.9-11.7-15.9c-18.9-1.4-17.3,15.9-17.3,15.9H9.2
		c0,0-5,0.1-5.8-4.1C2,92.1-3.7,84.6,3.9,79.6L3.9,79.6z"/>
</g>
</svg>
